GIL11_fast2_RRA_states
nRows=4
nColumns=47

# SIMM Motion File Header:
name GIL11_fast2_RRA_states
datacolumns 47
datarows 4
otherdata 1
range 0.29250000000000015000 0.29400000000000015000
endheader
time	pelvis_tx	pelvis_ty	pelvis_tz	pelvis_tilt	pelvis_list	pelvis_rotation	hip_flexion_r	hip_adduction_r	hip_rotation_r	knee_angle_r	ankle_angle_r	subtalar_angle_r	mtp_angle_r	hip_flexion_l	hip_adduction_l	hip_rotation_l	knee_angle_l	ankle_angle_l	subtalar_angle_l	mtp_angle_l	lumbar_extension	lumbar_bending	lumbar_rotation	pelvis_tx_u	pelvis_ty_u	pelvis_tz_u	pelvis_tilt_u	pelvis_list_u	pelvis_rotation_u	hip_flexion_r_u	hip_adduction_r_u	hip_rotation_r_u	knee_angle_r_u	ankle_angle_r_u	subtalar_angle_r_u	mtp_angle_r_u	hip_flexion_l_u	hip_adduction_l_u	hip_rotation_l_u	knee_angle_l_u	ankle_angle_l_u	subtalar_angle_l_u	mtp_angle_l_u	lumbar_extension_u	lumbar_bending_u	lumbar_rotation_u
      0.29250000000000015000	      1.56974259084360290000	      0.86986767273233001000	     -0.22712555739879717000	     -5.37762697321007370000	     -0.29449640056818449000	     -0.82388040976910581000	     -0.16298566750450486000	      3.06229034267092450000	     11.77698383061732400000	     -7.02351201038788900000	      8.26616359482227030000	     -0.00000000000003834635	     -0.00000000000002733484	     26.35289252517167900000	     -4.49164787415003720000	      5.84619271902446690000	    -48.30593139504155400000	      4.39069896000209250000	     -0.00000000000000053097	      0.00000000000000415430	     -4.23045520705168080000	     -3.20598356787873230000	      5.59237684883780870000	      1.44224383458005700000	     -0.10066287533094675000	      0.01995386903055060600	    -20.45923707589286900000	     45.46328975416879800000	     -0.92253481947919624000	   -131.16555434663482000000	    -45.84125811426245900000	    -10.40624739212759700000	     86.47121012032621900000	      1.63473765087355050000	     -0.00000000000005644796	     -0.00000000000042570195	    158.68788712589986000000	     61.55981973714339300000	    -72.34834698854868400000	    214.03504500129489000000	     73.49391497972247600000	     -0.00000000000001816104	      0.00000000000002101292	      8.73355560820684750000	    -41.38251688948373900000	      8.65360625997947430000
      0.29300000000000015000	      1.57046379171375670000	      0.86981691781377124000	     -0.22711567907218583000	     -5.38784483109325580000	     -0.27180988071213952000	     -0.82430936135134947000	     -0.22852124054390927000	      3.03942647721012850000	     11.77160092318989400000	     -6.98043963700461760000	      8.26700487843233840000	     -0.00000000000003837896	     -0.00000000000002753643	     26.43207447932061900000	     -4.46090524552953930000	      5.81013065037636970000	    -48.19859094149775600000	      4.42722619368478830000	     -0.00000000000000053994	      0.00000000000000416522	     -4.22609582118508340000	     -3.22662552875418210000	      5.59668310929092530000	      1.44256236063724290000	     -0.10235518252498538000	      0.01955894691990086100	    -20.41167340089535300000	     45.28223492610643300000	     -0.79292216834721130000	   -130.97789494784757000000	    -45.61370780395937900000	    -11.12538639430733100000	     85.81905344365282000000	      1.73024821662494670000	     -0.00000000000008680746	     -0.00000000000038182611	    158.03852234146473000000	     61.41023114451048300000	    -71.89922595269798900000	    215.32740955507310000000	     72.61253100633901200000	     -0.00000000000001792803	      0.00000000000002294423	      8.70379371702081710000	    -41.18458065074083400000	      8.57051180461875540000
      0.29350000000000015000	      1.57118515591854210000	      0.86976531917670152000	     -0.22710599895833122000	     -5.39803812453690130000	     -0.24921471461429351000	     -0.82467298323168636000	     -0.29396473769066622000	      3.01667711480700710000	     11.76585844439335700000	     -6.93769213007652930000	      8.26789346262353320000	     -0.00000000000003841984	     -0.00000000000002773378	     26.51092964218544200000	     -4.43023810215039850000	      5.77429418087683380000	    -48.09060334546511200000	      4.46330901092889490000	     -0.00000000000000054855	      0.00000000000000417669	     -4.22175160957886940000	     -3.24716740516330170000	      5.60094643760153680000	      1.44289717217759270000	     -0.10403772625765560000	      0.01916098667154488000	    -20.36097730359994900000	     45.09788654584771500000	     -0.66121753476322231000	   -130.79728726544457000000	    -45.38327819204064200000	    -11.84452336669641200000	     85.17185874415656600000	      1.82347721600123090000	     -0.00000000000004393663	     -0.00000000000041669104	    157.38072629818100000000	     61.25788788599669500000	    -71.44597875821565900000	    216.62361269991106000000	     71.71626762502813800000	     -0.00000000000001818183	      0.00000000000002240026	      8.67285437181624270000	    -40.98218452632767800000	      8.48187929459248660000
      0.29400000000000015000	      1.57190669159538770000	      0.86971288172181616000	     -0.22709651860656196000	     -5.40820528813345720000	     -0.22671253675974284000	     -0.82497023072489417000	     -0.35931971129046103000	      2.99404366542110930000	     11.75975640576350600000	     -6.89526692312442880000	      8.26882795213031230000	     -0.00000000000003844062	     -0.00000000000002793677	     26.58945380727542600000	     -4.39964780969605850000	      5.73868534800107180000	    -47.98196669503425200000	      4.49893998981254310000	     -0.00000000000000055782	      0.00000000000000418775	     -4.21742316258576370000	     -3.26760697334510160000	      5.60516406581992670000	      1.44324824003884620000	     -0.10571046210412885000	      0.01875990061907134200	    -20.30715967658874600000	     44.91028282710287600000	     -0.52742409044459226000	   -130.62378070837428000000	    -45.15005042673303800000	    -12.56362375545293700000	     84.52979557705046400000	      1.91428609667242980000	     -0.00000000000004889006	     -0.00000000000040156501	    156.71454099155605000000	     61.10283249084874100000	    -70.98867381262402900000	    217.92361684169074000000	     70.80517635754623000000	     -0.00000000000001949845	      0.00000000000002110211	      8.64074042025124280000	    -40.77534903245730600000	      8.38771029828944490000
